<svg width="40" height="34" viewBox="0 0 40 34" fill="none" xmlns="http://www.w3.org/2000/svg">
<path opacity="0.9" d="M39.6236 26.2263C39.6236 28.3598 38.8129 30.1945 37.1914 31.7306C35.6553 33.1814 33.6925 33.9068 31.303 33.9068C28.6575 33.9068 26.4387 32.9681 24.6466 31.0906C22.8545 29.2132 21.9584 26.525 21.9584 23.0261C21.9584 16.1137 23.7079 10.78 27.2068 7.02508C30.791 3.18483 34.7166 1.05136 38.9835 0.624668V6.64105C36.2527 7.23842 33.9912 8.77452 32.1991 11.2493C30.407 13.7242 29.4683 16.327 29.3829 19.0578C29.9803 18.6311 30.8337 18.4178 31.9431 18.4178C34.1619 18.4178 35.9967 19.1432 37.4474 20.5939C38.8982 21.9594 39.6236 23.8368 39.6236 26.2263ZM17.7342 26.2263C17.7342 28.3598 16.9235 30.1945 15.302 31.7306C13.7659 33.1814 11.8031 33.9068 9.41365 33.9068C6.76815 33.9068 4.54934 32.9681 2.75723 31.0906C0.965113 29.2132 0.0690561 26.525 0.0690561 23.0261C0.0690561 16.1137 1.8185 10.78 5.31739 7.02508C8.90162 3.18483 12.8272 1.05136 17.0941 0.624668V6.64105C14.3633 7.23842 12.1018 8.77452 10.3097 11.2493C8.51759 13.7242 7.57887 16.327 7.49353 19.0578C8.17624 18.6311 9.02963 18.4178 10.0537 18.4178C12.2725 18.4178 14.1073 19.1432 15.558 20.5939C17.0088 21.9594 17.7342 23.8368 17.7342 26.2263Z" fill="#7B68EE"/>
</svg>
